<?xml version="1.0" encoding="UTF-8" standalone="no"?>
<svg
   viewBox="2 2 20 18"
   fill="none"
   version="1.1"
   id="svg2"
   width="20"
   height="18"
   xmlns="http://www.w3.org/2000/svg"
   xmlns:svg="http://www.w3.org/2000/svg">
  <defs
     id="defs2" />
  <path
     stroke="currentColor"
     stroke-linecap="round"
     stroke-linejoin="round"
     stroke-width="2"
     d="M 3,7 V 5 A 2,2 0 0 1 5,3 h 14 a 2,2 0 0 1 2,2 V 7 M 3,7 v 6 M 3,7 h 6 m 12,0 v 6 M 21,7 H 9 m 12,6 v 4 a 2,2 0 0 1 -2,2 H 9 M 21,13 H 9 m -6,0 v 4 a 2,2 0 0 0 2,2 H 9 M 3,13 H 9 M 9,7 v 6 m 0,0 v 6 M 15,7 v 12"
     id="path1" />
  <path
     fill="currentColor"
     d="M 3,5 A 2,2 0 0 1 5,3 h 14 a 2,2 0 0 1 2,2 V 7 H 3 Z"
     id="path2" />
</svg>
